name rise35.5848peak51.9257fall54.8793.mot
datacolumns 19
datarows 26
range 0.57333000000000 0.61499400000000
endheader
time	ground_force1_vx	ground_force1_vy	ground_force1_vz	ground_force1_px	ground_force1_py	ground_force1_pz	ground_force2_vx	ground_force2_vy	ground_force2_vz	ground_force2_px	ground_force2_py	ground_force2_pz	ground_torque1_x	ground_torque1_y	ground_torque1_z	ground_torque2_x	ground_torque2_y	ground_torque2_z	
0.57333000000000	-10.10829000000000	41.01420800000000	-8.69350100000000	0.29543300000000	0.00000000000000	0.11309300000000	-55.71884800000000	785.32772399999999	-44.68920100000000	0.11473400000000	0.00000000000000	-0.05268600000000	0.00000000000000	-4.15377500000000	0.00000000000000	0.00000000000000	-15.83555300000000	0.00000000000000	
0.57499600000000	-11.13561300000000	48.21853200000000	-9.75920700000000	0.29967000000000	0.00000000000000	0.11359400000000	-56.26333700000000	782.03537600000004	-44.16506500000000	0.11396000000000	0.00000000000000	-0.05255700000000	0.00000000000000	-4.74932900000000	0.00000000000000	0.00000000000000	-15.72365300000000	0.00000000000000	
0.57666400000000	-11.98552400000000	55.55460700000000	-10.72187200000000	0.30359700000000	0.00000000000000	0.11404800000000	-56.81154700000000	778.62395900000001	-43.61993000000000	0.11318900000000	0.00000000000000	-0.05242300000000	0.00000000000000	-5.31409300000000	0.00000000000000	0.00000000000000	-15.61091500000000	0.00000000000000	
0.57833100000000	-12.63078100000000	62.93208400000000	-11.55857000000000	0.30726300000000	0.00000000000000	0.11446300000000	-57.36302500000000	775.09187899999995	-43.05424200000000	0.11242200000000	0.00000000000000	-0.05228500000000	0.00000000000000	-5.83579500000000	0.00000000000000	0.00000000000000	-15.49741000000000	0.00000000000000	
0.57999200000000	-13.05498500000000	70.28203900000000	-12.25425300000000	0.31070600000000	0.00000000000000	0.11484500000000	-57.91724000000000	771.43743199999994	-42.46847700000000	0.11165800000000	0.00000000000000	-0.05214400000000	0.00000000000000	-6.30553400000000	0.00000000000000	0.00000000000000	-15.38320300000000	0.00000000000000	
0.58166000000000	-13.25245300000000	77.55923199999999	-12.80183500000000	0.31395500000000	0.00000000000000	0.11519800000000	-58.47359400000000	767.65880600000003	-41.86314600000000	0.11089900000000	0.00000000000000	-0.05199800000000	0.00000000000000	-6.71797500000000	0.00000000000000	0.00000000000000	-15.26834600000000	0.00000000000000	
0.58332700000000	-13.22724100000000	84.74203199999999	-13.20159600000000	0.31703600000000	0.00000000000000	0.11552600000000	-59.03141100000000	763.75409300000001	-41.23878800000000	0.11014400000000	0.00000000000000	-0.05184800000000	0.00000000000000	-7.07121900000000	0.00000000000000	0.00000000000000	-15.15288200000000	0.00000000000000	
0.58499000000000	-12.99154700000000	91.83041400000000	-13.46009900000000	0.31996900000000	0.00000000000000	0.11583300000000	-59.58994200000000	759.72129399999994	-40.59597800000000	0.10939600000000	0.00000000000000	-0.05169400000000	0.00000000000000	-7.36641300000000	0.00000000000000	0.00000000000000	-15.03684500000000	0.00000000000000	
0.58666500000000	-12.56371000000000	98.84250500000000	-13.58876700000000	0.32276900000000	0.00000000000000	0.11612000000000	-60.14836100000000	755.55832499999997	-39.93531800000000	0.10865500000000	0.00000000000000	-0.05153600000000	0.00000000000000	-7.60717900000000	0.00000000000000	0.00000000000000	-14.92025500000000	0.00000000000000	
0.58832400000000	-11.96606100000000	105.81025000000000	-13.60231300000000	0.32545200000000	0.00000000000000	0.11639000000000	-60.70576900000000	751.26303499999995	-39.25744000000000	0.10792000000000	0.00000000000000	-0.05137500000000	0.00000000000000	-7.79893300000000	0.00000000000000	0.00000000000000	-14.80312400000000	0.00000000000000	
0.58999100000000	-11.22281900000000	112.77468100000000	-13.51717000000000	0.32802900000000	0.00000000000000	0.11664500000000	-61.26119200000000	746.83321100000001	-38.56300900000000	0.10719400000000	0.00000000000000	-0.05120900000000	0.00000000000000	-7.94817300000000	0.00000000000000	0.00000000000000	-14.68545200000000	0.00000000000000	
0.59165700000000	-10.35819700000000	119.78125600000000	-13.35005600000000	0.33050800000000	0.00000000000000	0.11688700000000	-61.81357900000000	742.26659400000005	-37.85271200000000	0.10647700000000	0.00000000000000	-0.05104000000000	0.00000000000000	-8.06180100000000	0.00000000000000	0.00000000000000	-14.56722800000000	0.00000000000000	
0.59332400000000	-9.39483500000000	126.87563600000000	-13.11675500000000	0.33289900000000	0.00000000000000	0.11711600000000	-62.36180800000000	737.56088999999997	-37.12726900000000	0.10577000000000	0.00000000000000	-0.05086700000000	0.00000000000000	-8.14653100000000	0.00000000000000	0.00000000000000	-14.44843000000000	0.00000000000000	
0.59499300000000	-8.35262000000000	134.10013499999999	-12.83118600000000	0.33520900000000	0.00000000000000	0.11733300000000	-62.90468500000000	732.71379000000002	-36.38742300000000	0.10507300000000	0.00000000000000	-0.05069000000000	0.00000000000000	-8.20840300000000	0.00000000000000	0.00000000000000	-14.32902600000000	0.00000000000000	
0.59666000000000	-7.24792800000000	141.49101700000000	-12.50477200000000	0.33744200000000	0.00000000000000	0.11754100000000	-63.44094400000000	727.72298300000000	-35.63394200000000	0.10438800000000	0.00000000000000	-0.05050900000000	0.00000000000000	-8.25243900000000	0.00000000000000	0.00000000000000	-14.20897300000000	0.00000000000000	
0.59832900000000	-6.09326200000000	149.07669300000001	-12.14610500000000	0.33960400000000	0.00000000000000	0.11773900000000	-63.96925200000000	722.58617500000003	-34.86762100000000	0.10371500000000	0.00000000000000	-0.05032400000000	0.00000000000000	-8.28243500000000	0.00000000000000	0.00000000000000	-14.08821700000000	0.00000000000000	
0.59999500000000	-4.89724200000000	156.87678000000000	-11.76088800000000	0.34169800000000	0.00000000000000	0.11792800000000	-64.48821100000001	717.30110700000000	-34.08927400000000	0.10305600000000	0.00000000000000	-0.05013600000000	0.00000000000000	-8.30087400000000	0.00000000000000	0.00000000000000	-13.96669400000000	0.00000000000000	
0.60165900000000	-3.66489700000000	164.90196200000000	-11.35209700000000	0.34372900000000	0.00000000000000	0.11810900000000	-64.99635600000001	711.86557700000003	-33.29974000000000	0.10241000000000	0.00000000000000	-0.04994400000000	0.00000000000000	-8.30896800000000	0.00000000000000	0.00000000000000	-13.84433000000000	0.00000000000000	
0.60332900000000	-2.39816500000000	173.15448400000000	-10.92032200000000	0.34569900000000	0.00000000000000	0.11828300000000	-65.49216500000000	706.27745900000002	-32.49987400000000	0.10177900000000	0.00000000000000	-0.04974900000000	0.00000000000000	-8.30677800000000	0.00000000000000	0.00000000000000	-13.72104200000000	0.00000000000000	
0.60499500000000	-1.09653500000000	181.62916000000001	-10.46422000000000	0.34761100000000	0.00000000000000	0.11844900000000	-65.97405700000000	700.53472399999998	-31.69055200000000	0.10116400000000	0.00000000000000	-0.04955000000000	0.00000000000000	-8.29340200000000	0.00000000000000	0.00000000000000	-13.59673800000000	0.00000000000000	
0.60665800000000	0.24223900000000	190.31469100000001	-9.98103200000000	0.34946500000000	0.00000000000000	0.11861000000000	-66.44040000000000	694.63546499999995	-30.87266700000000	0.10056500000000	0.00000000000000	-0.04934700000000	0.00000000000000	-8.26720500000000	0.00000000000000	0.00000000000000	-13.47131600000000	0.00000000000000	
0.60832300000000	1.62143200000000	199.19516600000000	-9.46710900000000	0.35126400000000	0.00000000000000	0.11876400000000	-66.88951100000000	688.57791099999997	-30.04712500000000	0.09998300000000	0.00000000000000	-0.04914100000000	0.00000000000000	-8.22606400000000	0.00000000000000	0.00000000000000	-13.34466900000000	0.00000000000000	
0.60999500000000	3.04469000000000	208.25158600000000	-8.91840800000000	0.35301000000000	0.00000000000000	0.11891200000000	-67.31966100000000	682.36045700000000	-29.21484600000000	0.09941900000000	0.00000000000000	-0.04893200000000	0.00000000000000	-8.16760600000000	0.00000000000000	0.00000000000000	-13.21667900000000	0.00000000000000	
0.61166200000000	4.51546100000000	217.46329299999999	-8.33093200000000	0.35470200000000	0.00000000000000	0.11905500000000	-67.72908400000000	675.98167699999999	-28.37676400000000	0.09887400000000	0.00000000000000	-0.04871900000000	0.00000000000000	-8.08942000000000	0.00000000000000	0.00000000000000	-13.08722400000000	0.00000000000000	
0.61332500000000	6.03654700000000	226.80923200000001	-7.70108400000000	0.35634100000000	0.00000000000000	0.11919300000000	-68.11597500000001	669.44034599999998	-27.53382000000000	0.09834800000000	0.00000000000000	-0.04850300000000	0.00000000000000	-7.98924800000000	0.00000000000000	0.00000000000000	-12.95617500000000	0.00000000000000	
0.61499400000000	7.60978100000000	236.26897000000000	-7.02593100000000	0.35792800000000	0.00000000000000	0.11932600000000	-68.47850400000000	662.73545799999999	-26.68696300000000	0.09784200000000	0.00000000000000	-0.04828300000000	0.00000000000000	-7.86511900000000	0.00000000000000	0.00000000000000	-12.82340000000000	0.00000000000000	
